<svg width="112" height="112" viewBox="0 0 112 112" fill="none" xmlns="http://www.w3.org/2000/svg">
<rect width="112" height="112" rx="56" fill="#F5F3ED"/>
<path d="M60 41.334C60 43.5431 58.2091 45.334 56 45.334C53.7909 45.334 52 43.5431 52 41.334C52 39.1249 53.7909 37.334 56 37.334C58.2091 37.334 60 39.1249 60 41.334Z" fill="#E95B29"/>
<path d="M40.1368 47.1574C39.6711 48.5546 40.4262 50.0647 41.8234 50.5305C42.2908 50.6856 42.762 50.8301 43.2337 50.9715C44.0968 51.2304 45.3043 51.5755 46.6865 51.9211C48.2375 52.3088 50.0825 52.7165 51.9421 52.9939C51.8195 55.3744 51.5213 57.0824 51.2443 58.2157L45.6148 69.4747C44.9562 70.792 45.4901 72.3939 46.8074 73.0525C48.1247 73.7112 49.7265 73.1771 50.3851 71.86L56 60.6301L61.6149 71.86C62.2736 73.1771 63.8752 73.7112 65.1925 73.0525C66.5099 72.3939 67.0437 70.792 66.3851 69.4747L60.7557 58.2157C60.4787 57.0824 60.1805 55.3744 60.0579 52.9939C61.9176 52.7165 63.7624 52.3088 65.3133 51.9211C66.6957 51.5755 67.9032 51.2304 68.7661 50.9715C69.2347 50.8309 69.7024 50.6872 70.1667 50.5337C71.5363 50.0792 72.3203 48.5286 71.8632 47.1574C71.3976 45.7603 69.8875 45.0052 68.4904 45.4707C68.0739 45.6085 67.6541 45.737 67.2339 45.8631C66.4301 46.1042 65.3043 46.4258 64.02 46.7469C61.3909 47.4042 58.3224 48.0006 56 48.0006C53.6776 48.0006 50.6091 47.4042 47.9801 46.7469C46.6957 46.4258 45.5699 46.1042 44.7663 45.8631C44.3511 45.7386 43.9368 45.6108 43.5249 45.4758C42.1396 45.0176 40.6012 45.7644 40.1368 47.1574Z" fill="#E95B29"/>
<path fill-rule="evenodd" clip-rule="evenodd" d="M85.3333 56.0006C85.3333 72.2011 72.2002 85.3339 56 85.3339C39.7996 85.3339 26.6666 72.2011 26.6666 56.0006C26.6666 39.8003 39.7996 26.6674 56 26.6674C72.2002 26.6674 85.3333 39.8003 85.3333 56.0006ZM32.0182 56.0006C32.0182 69.2454 42.7552 79.9824 56 79.9824C69.2448 79.9824 79.9818 69.2454 79.9818 56.0006C79.9818 42.7559 69.2448 32.0189 56 32.0189C42.7552 32.0189 32.0182 42.7559 32.0182 56.0006Z" fill="#E95B29"/>
</svg>
