<svg width="112" height="112" viewBox="0 0 112 112" fill="none" xmlns="http://www.w3.org/2000/svg">
<rect width="112" height="112" rx="56" fill="#F5F3ED"/>
<path d="M86.2619 48.7652C86.2619 45.5449 85.0519 42.4761 82.8548 40.1239C81.2052 38.3577 79.1154 37.119 76.8205 36.5179C76.8522 36.1742 76.8702 35.8278 76.8702 35.4788C76.8703 29.1493 71.721 24 65.3917 24C61.5124 24 58.0789 25.9363 56 28.8911C53.9212 25.9363 50.4877 24 46.6084 24C40.279 24 35.1299 29.1493 35.1299 35.4785C35.1299 35.8278 35.148 36.1741 35.1795 36.5176C32.8847 37.1186 30.7952 38.3575 29.1453 40.1236C26.948 42.476 25.7382 45.5449 25.7382 48.7651C25.7382 51.4509 26.5795 53.9435 28.0113 55.9947C26.5358 58.1066 25.7382 60.6199 25.7382 63.2346C25.7382 69.1034 29.7519 74.0519 35.1784 75.4805C35.1473 75.8256 35.1297 76.1726 35.1297 76.5214C35.1297 82.8507 40.2789 87.9999 46.6082 87.9999C50.4875 87.9999 53.921 86.0636 55.9998 83.1087C58.0789 86.0637 61.5124 88 65.3917 88C71.721 88 76.8702 82.8507 76.8702 76.5215C76.8702 76.173 76.8527 75.8259 76.8214 75.4806C82.2479 74.052 86.2617 69.1036 86.2617 63.2347C86.2617 60.6199 85.4639 58.1066 83.9885 55.9949C85.4207 53.9436 86.2619 51.451 86.2619 48.7652ZM53.913 66.886V76.5215C53.913 80.5491 50.636 83.8261 46.6084 83.8261C42.5805 83.8261 39.3038 80.5491 39.3038 76.5215C39.3038 76.3001 39.3148 76.08 39.3344 75.861C42.5603 75.621 45.5998 74.1468 47.7864 71.7324L44.6928 68.9302C43.0857 70.7046 40.792 71.7224 38.3999 71.7224C33.7197 71.7224 29.9122 67.9147 29.9122 63.2347C29.9122 61.7482 30.2965 60.3108 31.0164 59.0449C33.0963 60.543 35.6467 61.4268 38.3999 61.4268V57.2529C33.7197 57.2529 29.9122 53.4452 29.9122 48.7652C29.9122 44.8404 32.6274 41.4746 36.3157 40.5384C37.5845 43.1093 39.796 45.1855 42.5773 46.2288L44.0433 42.3207C41.2085 41.2574 39.3038 38.5078 39.3038 35.4786C39.3038 31.4508 42.5808 28.174 46.6084 28.174C50.636 28.174 53.913 31.451 53.913 35.4786V45.1141V48.0155H52.1893V45.1141H48.0154V48.0155H45.114V52.1894H48.0154V53.9131H45.114V58.087H48.0154V59.8106H45.114V63.9845H48.0154V66.8859H52.1893V63.9845H53.913V66.886ZM52.1895 59.8106V52.1895H59.8107V59.8106H52.1895ZM80.9837 59.0449C81.7035 60.3109 82.0879 61.7484 82.0879 63.2347C82.0879 67.915 78.2803 71.7224 73.6002 71.7224C71.208 71.7224 68.9144 70.7047 67.3073 68.9302L64.2138 71.7325C66.4005 74.1467 69.4399 75.6209 72.6658 75.8611C72.6854 76.08 72.6964 76.3003 72.6964 76.5216C72.6964 80.5495 69.4194 83.8262 65.3918 83.8262C61.3642 83.8262 58.087 80.5495 58.087 76.5216V66.8861V63.9847H59.8107V66.8861H63.9845V63.9847H66.8859V59.8109H63.9845V58.0872H66.8859V53.9134H63.9845V52.1896H66.8859V48.0158H63.9845V45.1144H59.8107V48.0158H58.087V45.1144V35.4785C58.087 31.4506 61.364 28.1739 65.3917 28.1739C69.4193 28.1739 72.6963 31.4506 72.6963 35.4785C72.6963 38.5075 70.7915 41.2571 67.9568 42.3206L69.4228 46.2286C72.2042 45.1852 74.4155 43.109 75.6845 40.5382C79.3728 41.4746 82.088 44.8403 82.088 48.7651C82.088 53.4453 78.2804 57.2528 73.6003 57.2528V61.4266C76.3534 61.4267 78.9038 60.5429 80.9837 59.0449Z" fill="#E95B29"/>
</svg>
