<svg width="112" height="112" viewBox="0 0 112 112" fill="none" xmlns="http://www.w3.org/2000/svg">
<rect width="112" height="112" rx="56" fill="white"/>
<path d="M82.6666 53.3333C82.6741 51.4538 82.1848 49.6056 81.2482 47.976C80.3116 46.3463 78.9611 44.9931 77.3333 44.0533C77.3734 43.592 77.3734 43.128 77.3333 42.6667C77.3333 40.5449 76.4905 38.5101 74.9902 37.0098C73.4899 35.5095 71.455 34.6667 69.3333 34.6667H68.8533C68.4092 33.4355 67.6699 32.3321 66.7001 31.4532C65.7303 30.5743 64.5597 29.9468 63.2909 29.6256C62.0221 29.3045 60.6939 29.2995 59.4227 29.6112C58.1516 29.9229 56.9763 30.5417 56 31.4133C55.0237 30.5417 53.8484 29.9229 52.5772 29.6112C51.3061 29.2995 49.9779 29.3045 48.7091 29.6256C47.4403 29.9468 46.2697 30.5743 45.2999 31.4532C44.3301 32.3321 43.5907 33.4355 43.1466 34.6667H42.6666C40.5449 34.6667 38.5101 35.5095 37.0098 37.0098C35.5095 38.5101 34.6666 40.5449 34.6666 42.6667C34.6265 43.128 34.6265 43.592 34.6666 44.0533C33.1532 44.9088 31.8718 46.1212 30.934 47.585C29.9961 49.0488 29.4303 50.7197 29.2857 52.4521C29.1411 54.1846 29.4221 55.9261 30.1044 57.5251C30.7866 59.1241 31.8493 60.5322 33.2 61.6267C32.326 63.2567 31.891 65.086 31.9374 66.9349C31.9839 68.7839 32.5104 70.589 33.4651 72.1731C34.4198 73.7571 35.7701 75.0657 37.3833 75.9704C38.9964 76.8751 40.8171 77.3448 42.6666 77.3333H43.1466C43.5907 78.5645 44.3301 79.6679 45.2999 80.5468C46.2697 81.4257 47.4403 82.0532 48.7091 82.3744C49.9779 82.6955 51.3061 82.7005 52.5772 82.3888C53.8484 82.0771 55.0237 81.4583 56 80.5867C56.9763 81.4583 58.1516 82.0771 59.4227 82.3888C60.6939 82.7005 62.0221 82.6955 63.2909 82.3744C64.5597 82.0532 65.7303 81.4257 66.7001 80.5468C67.6699 79.6679 68.4092 78.5645 68.8533 77.3333H69.3333C71.1715 77.3217 72.9755 76.8352 74.5704 75.9211C76.1652 75.007 77.4967 73.6962 78.4358 72.1159C79.3748 70.5356 79.8895 68.7394 79.93 66.9016C79.9704 65.0638 79.5353 63.2468 78.6666 61.6267C79.9105 60.6308 80.9154 59.369 81.6076 57.9338C82.2998 56.4987 82.6617 54.9267 82.6666 53.3333ZM53.3333 46.8C52.7525 46.4678 52.1461 46.1825 51.52 45.9467C50.8481 45.7204 50.1138 45.7702 49.4787 46.0853C48.8436 46.4003 48.3596 46.9548 48.1333 47.6267C47.907 48.2986 47.9568 49.0328 48.2719 49.6679C48.587 50.3031 49.1414 50.787 49.8133 51.0133C50.8398 51.3844 51.7278 52.0616 52.3572 52.9533C52.9867 53.8451 53.3274 54.9085 53.3333 56V60.1333C52.7525 59.8011 52.1461 59.5158 51.52 59.28C50.8481 59.0537 50.1138 59.1035 49.4787 59.4186C48.8436 59.7337 48.3596 60.2881 48.1333 60.96C47.907 61.6319 47.9568 62.3662 48.2719 63.0013C48.587 63.6364 49.1414 64.1204 49.8133 64.3467C50.8398 64.7178 51.7278 65.3949 52.3572 66.2867C52.9867 67.1784 53.3274 68.2418 53.3333 69.3333V74.6667C53.3333 75.3739 53.0524 76.0522 52.5523 76.5523C52.0522 77.0524 51.3739 77.3333 50.6666 77.3333C50.1507 77.33 49.6469 77.177 49.2162 76.893C48.7854 76.609 48.4463 76.2062 48.24 75.7333C48.6871 75.471 49.1149 75.1769 49.52 74.8533C49.7896 74.6292 50.0125 74.3542 50.1758 74.0439C50.3392 73.7337 50.4398 73.3943 50.472 73.0451C50.5042 72.696 50.4673 72.3439 50.3635 72.009C50.2596 71.6741 50.0908 71.363 49.8666 71.0933C49.6425 70.8237 49.3675 70.6008 49.0572 70.4375C48.747 70.2741 48.4076 70.1735 48.0584 70.1413C47.7093 70.1091 47.3572 70.146 47.0223 70.2499C46.6874 70.3537 46.3763 70.5225 46.1066 70.7467C45.1438 71.5573 43.9253 72.0012 42.6666 72C41.2522 72 39.8956 71.4381 38.8954 70.4379C37.8952 69.4377 37.3333 68.0812 37.3333 66.6667C37.3461 65.6629 37.6419 64.6831 38.1866 63.84C38.7851 63.9473 39.392 64.0009 40 64C40.7072 64 41.3855 63.7191 41.8856 63.219C42.3857 62.7189 42.6666 62.0406 42.6666 61.3333C42.6666 60.6261 42.3857 59.9478 41.8856 59.4477C41.3855 58.9476 40.7072 58.6667 40 58.6667C39.3701 58.6703 38.7454 58.5526 38.16 58.32C37.2009 57.9741 36.3611 57.3605 35.74 56.552C35.1188 55.7435 34.7425 54.7739 34.6555 53.758C34.5685 52.7422 34.7745 51.7227 35.2491 50.8204C35.7237 49.918 36.447 49.1706 37.3333 48.6667C37.7122 49.0153 38.1229 49.3278 38.56 49.6C39.1753 49.9536 39.9059 50.0483 40.591 49.8633C41.2761 49.6783 41.8597 49.2286 42.2133 48.6133C42.5669 47.998 42.6616 47.2675 42.4766 46.5823C42.2916 45.8972 41.8419 45.3136 41.2266 44.96C40.8512 44.7529 40.5382 44.4491 40.32 44.08C40.0734 43.6519 39.9619 43.1593 40 42.6667C40 41.9594 40.2809 41.2812 40.781 40.7811C41.2811 40.281 41.9594 40 42.6666 40C42.8524 39.9741 43.0409 39.9741 43.2266 40C43.3678 40.4285 43.5371 40.8471 43.7333 41.2533C43.9075 41.5589 44.1405 41.827 44.4187 42.0421C44.697 42.2573 45.0151 42.4153 45.3546 42.507C45.6942 42.5987 46.0486 42.6223 46.3973 42.5765C46.7461 42.5307 47.0823 42.4163 47.3866 42.24C47.9779 41.8843 48.4082 41.3133 48.5872 40.6469C48.7662 39.9806 48.68 39.2708 48.3466 38.6667C48.1229 38.2576 48.0038 37.7996 48 37.3333C48 36.6261 48.2809 35.9478 48.781 35.4477C49.2811 34.9476 49.9594 34.6667 50.6666 34.6667C51.3739 34.6667 52.0522 34.9476 52.5523 35.4477C53.0524 35.9478 53.3333 36.6261 53.3333 37.3333V46.8ZM73.84 58.32C73.2546 58.5526 72.6299 58.6703 72 58.6667C71.2927 58.6667 70.6145 58.9476 70.1144 59.4477C69.6143 59.9478 69.3333 60.6261 69.3333 61.3333C69.3333 62.0406 69.6143 62.7189 70.1144 63.219C70.6145 63.7191 71.2927 64 72 64C72.608 64.0009 73.2149 63.9473 73.8133 63.84C74.3581 64.6831 74.6539 65.6629 74.6666 66.6667C74.6666 68.0812 74.1047 69.4377 73.1045 70.4379C72.1044 71.4381 70.7478 72 69.3333 72C68.0747 72.0012 66.8562 71.5573 65.8933 70.7467C65.3487 70.294 64.6467 70.0763 63.9415 70.1413C63.2364 70.2063 62.5859 70.5488 62.1333 71.0933C61.6807 71.6379 61.4629 72.34 61.5279 73.0451C61.5929 73.7503 61.9354 74.4007 62.48 74.8533C62.8851 75.1769 63.3128 75.471 63.76 75.7333C63.5536 76.2062 63.2145 76.609 62.7838 76.893C62.3531 77.177 61.8492 77.33 61.3333 77.3333C60.6261 77.3333 59.9478 77.0524 59.4477 76.5523C58.9476 76.0522 58.6666 75.3739 58.6666 74.6667V69.3333C58.6726 68.2418 59.0133 67.1784 59.6427 66.2867C60.2722 65.3949 61.1601 64.7178 62.1866 64.3467C62.8585 64.1204 63.413 63.6364 63.728 63.0013C64.0431 62.3662 64.093 61.6319 63.8666 60.96C63.6403 60.2881 63.1564 59.7337 62.5213 59.4186C61.8861 59.1035 61.1519 59.0537 60.48 59.28C59.8538 59.5158 59.2474 59.8011 58.6666 60.1333V56C58.6726 54.9085 59.0133 53.8451 59.6427 52.9533C60.2722 52.0616 61.1601 51.3844 62.1866 51.0133C62.8585 50.787 63.413 50.3031 63.728 49.6679C64.0431 49.0328 64.093 48.2986 63.8666 47.6267C63.6403 46.9548 63.1564 46.4003 62.5213 46.0853C61.8861 45.7702 61.1519 45.7204 60.48 45.9467C59.8538 46.1825 59.2474 46.4678 58.6666 46.8V37.3333C58.6666 36.6261 58.9476 35.9478 59.4477 35.4477C59.9478 34.9476 60.6261 34.6667 61.3333 34.6667C62.0406 34.6667 62.7188 34.9476 63.2189 35.4477C63.719 35.9478 64 36.6261 64 37.3333C63.9962 37.7996 63.8771 38.2576 63.6533 38.6667C63.4759 38.9694 63.36 39.3042 63.3122 39.6519C63.2644 39.9996 63.2858 40.3532 63.3749 40.6926C63.4641 41.032 63.6194 41.3505 63.8319 41.6297C64.0444 41.909 64.31 42.1436 64.6133 42.32C64.9177 42.4963 65.2539 42.6107 65.6026 42.6565C65.9514 42.7023 66.3057 42.6787 66.6453 42.587C66.9849 42.4953 67.303 42.3373 67.5812 42.1221C67.8595 41.907 68.0924 41.6389 68.2666 41.3333C68.4662 40.9012 68.6355 40.4557 68.7733 40C68.9591 39.9741 69.1475 39.9741 69.3333 40C70.0406 40 70.7188 40.281 71.2189 40.7811C71.719 41.2812 72 41.9594 72 42.6667C71.9959 43.1894 71.8383 43.6995 71.5466 44.1333C71.3285 44.4794 71.0256 44.7639 70.6666 44.96C70.0513 45.3136 69.6017 45.8972 69.4167 46.5823C69.2316 47.2675 69.3264 47.998 69.68 48.6133C70.0336 49.2286 70.6172 49.6783 71.3023 49.8633C71.9874 50.0483 72.718 49.9536 73.3333 49.6C73.8121 49.3411 74.2595 49.0279 74.6666 48.6667C75.556 49.1617 76.2851 49.9009 76.7679 50.7969C77.2507 51.6929 77.467 52.7084 77.3913 53.7234C77.3156 54.7384 76.951 55.7106 76.3406 56.5251C75.7303 57.3395 74.8996 57.9624 73.9466 58.32H73.84Z" fill="#E95B29"/>
</svg>
