<svg width="112" height="112" viewBox="0 0 112 112" fill="none" xmlns="http://www.w3.org/2000/svg">
<rect width="112" height="112" rx="56" fill="#F5F3ED"/>
<path d="M70.8838 56.4093C68.298 56.4093 65.749 56.9961 63.4385 58.1118C61.1879 57.0213 58.6641 56.4093 56 56.4093C53.336 56.4093 50.8121 57.0213 48.5614 58.1118C46.251 56.9958 43.702 56.4093 41.1162 56.4093C31.6784 56.4093 24 64.0877 24 73.5257C24 74.7587 24.9996 75.7582 26.2325 75.7582H41.1162H53.7675V76.5023C53.7675 77.7353 54.7671 78.7348 56 78.7348C57.233 78.7348 58.2325 77.7352 58.2325 76.5023V75.7582H70.8838H85.7675C87.0005 75.7582 88 74.7586 88 73.5257C88 64.0877 80.3216 56.4093 70.8838 56.4093ZM39.0293 71.2931H28.6624C29.72 65.3784 34.9021 60.8744 41.1164 60.8744C42.1274 60.8744 43.1304 60.9964 44.1035 61.2321C41.3918 63.8571 39.5428 67.3678 39.0293 71.2931ZM53.7675 71.2931H43.5461C44.4741 66.1034 48.5777 62.0006 53.7675 61.0726V71.2931ZM58.2326 71.2931V61.0726C63.4224 62.0006 67.526 66.1033 68.454 71.2931H58.2326ZM72.9707 71.2931C72.4571 67.3678 70.6083 63.8572 67.8966 61.2321C68.8699 60.9964 69.8728 60.8744 70.8838 60.8744C77.0979 60.8744 82.2801 65.3784 83.3377 71.2931H72.9707Z" fill="#E95B29"/>
<path d="M70.8837 33.2651C67.8491 33.2651 65.1489 34.7208 63.4419 36.9695C61.7349 34.7208 59.0346 33.2651 56 33.2651C52.9654 33.2651 50.2651 34.7208 48.5581 36.9695C46.8511 34.7208 44.1509 33.2651 41.1162 33.2651C35.9664 33.2651 31.7767 37.4548 31.7767 42.6046C31.7767 47.7545 35.9664 51.9441 41.1162 51.9441C44.1509 51.9441 46.8511 50.4885 48.5581 48.2398C50.2651 50.4885 52.9654 51.9441 56 51.9441C59.0346 51.9441 61.7349 50.4885 63.4419 48.2398C65.1489 50.4885 67.8491 51.9441 70.8837 51.9441C76.0336 51.9441 80.2232 47.7545 80.2232 42.6046C80.2232 37.4548 76.0336 33.2651 70.8837 33.2651ZM41.1162 47.4791C38.4284 47.4791 36.2419 45.2925 36.2419 42.6048C36.2419 39.917 38.4285 37.7304 41.1162 37.7304C43.804 37.7304 45.9906 39.917 45.9906 42.6048C45.9906 45.2925 43.8041 47.4791 41.1162 47.4791ZM56 47.4791C53.3121 47.4791 51.1256 45.2925 51.1256 42.6048C51.1256 39.917 53.3122 37.7304 56 37.7304C58.6877 37.7304 60.8744 39.917 60.8744 42.6048C60.8744 45.2925 58.6879 47.4791 56 47.4791ZM70.8837 47.4791C68.1959 47.4791 66.0094 45.2925 66.0094 42.6048C66.0094 39.917 68.196 37.7304 70.8837 37.7304C73.5715 37.7304 75.7581 39.917 75.7581 42.6048C75.7581 45.2925 73.5716 47.4791 70.8837 47.4791Z" fill="#E95B29"/>
</svg>
