<svg width="112" height="112" viewBox="0 0 112 112" fill="none" xmlns="http://www.w3.org/2000/svg">
<rect width="112" height="112" rx="56" fill="#F5F3ED"/>
<g clip-path="url(#clip0_2026_99)">
<path d="M51.095 53.9209L55.6244 49.3905C50.3567 46.9705 43.9084 47.9226 39.5755 52.2555C34.0145 57.8175 34.0145 66.8645 39.5755 72.4245C45.1355 77.9866 54.1835 77.9866 59.7447 72.4245C64.0775 68.0916 65.029 61.6434 62.6087 56.3751L58.0793 60.9055C58.5283 63.5456 57.7453 66.3555 55.7104 68.3904C52.3738 71.726 46.9454 71.726 43.6093 68.3904C40.2722 65.0538 40.2722 59.6263 43.6093 56.2896C45.6434 54.2549 48.454 53.4719 51.095 53.9209Z" fill="#E95B29"/>
<path d="M68.5985 56.0491C70.8926 62.9886 69.2898 70.9469 63.7783 76.4588C55.9934 84.2433 43.3263 84.2433 35.5413 76.4588C27.7568 68.6743 27.7568 56.0068 35.5413 48.2233C41.0541 42.7094 49.0115 41.1068 55.952 43.4021L55.2928 37.3084C46.9959 35.4554 37.9513 37.7447 31.5075 44.1881C21.4975 54.1979 21.4975 70.4841 31.5075 80.4931C41.5164 90.5018 57.802 90.5018 67.8114 80.4931C74.2552 74.0487 76.544 65.0056 74.6904 56.7093L68.5985 56.0491Z" fill="#E95B29"/>
<path d="M60.0833 49.7727L50.2901 59.5665C49.3669 59.3562 48.3613 59.6057 47.6422 60.324C46.5284 61.4372 46.5284 63.243 47.6422 64.3572C48.7563 65.4714 50.5617 65.4714 51.6763 64.3572C52.3956 63.6381 52.6432 62.632 52.4339 61.7095L62.2276 51.9167L74.3184 53.2254L74.8004 52.7429L87.9999 39.5429L73.9746 38.0259L72.4561 24.0005L58.7746 37.682L58.8482 38.361L60.0833 49.7727ZM73.2672 50.2425L64.8161 49.3277L67.7577 46.3851L67.7386 46.3674L76.2249 47.285L73.2672 50.2425ZM73.2058 40.8102L81.7718 41.7377L78.8139 44.697L70.2478 43.7695L73.2058 40.8102ZM70.2617 30.2286L71.1882 38.7942L68.2308 41.7515L67.3048 33.187L70.2617 30.2286ZM64.7149 35.7749L65.6336 44.2609L65.6143 44.2412L62.6722 47.1839L61.7571 38.7312L64.7149 35.7749Z" fill="#E95B29"/>
</g>
<defs>
<clipPath id="clip0_2026_99">
<rect width="64" height="64" fill="white" transform="translate(24 24)"/>
</clipPath>
</defs>
</svg>
