<svg width="112" height="112" viewBox="0 0 112 112" fill="none" xmlns="http://www.w3.org/2000/svg">
<rect width="112" height="112" rx="56" fill="#F5F3ED"/>
<path d="M61.3333 29.3334H50.6667C49.1939 29.3334 48 30.5273 48 32V42.6667C48 44.1395 49.1939 45.3334 50.6667 45.3334H61.3333C62.8061 45.3334 64 44.1395 64 42.6667V32C64 30.5273 62.8061 29.3334 61.3333 29.3334Z" stroke="#E95B29" stroke-width="4" stroke-linecap="round" stroke-linejoin="round"/>
<path d="M34.6667 72V61.3333C34.6667 59.8605 35.8606 58.6666 37.3334 58.6666H74.6667C76.1395 58.6666 77.3334 59.8605 77.3334 61.3333V72" stroke="#E95B29" stroke-width="4" stroke-linecap="round" stroke-linejoin="round"/>
<path d="M34.6666 82.6667C37.6122 82.6667 40 80.2789 40 77.3333C40 74.3878 37.6122 72 34.6666 72C31.7211 72 29.3333 74.3878 29.3333 77.3333C29.3333 80.2789 31.7211 82.6667 34.6666 82.6667Z" stroke="#E95B29" stroke-width="4" stroke-linecap="round" stroke-linejoin="round"/>
<path d="M77.3333 82.6667C80.2789 82.6667 82.6667 80.2789 82.6667 77.3333C82.6667 74.3878 80.2789 72 77.3333 72C74.3878 72 72 74.3878 72 77.3333C72 80.2789 74.3878 82.6667 77.3333 82.6667Z" stroke="#E95B29" stroke-width="4" stroke-linecap="round" stroke-linejoin="round"/>
<path d="M56 82.6667C58.9455 82.6667 61.3334 80.2789 61.3334 77.3333C61.3334 74.3878 58.9455 72 56 72C53.0545 72 50.6667 74.3878 50.6667 77.3333C50.6667 80.2789 53.0545 82.6667 56 82.6667Z" stroke="#E95B29" stroke-width="4" stroke-linecap="round" stroke-linejoin="round"/>
<path d="M56 45.3334V72" stroke="#E95B29" stroke-width="4" stroke-linecap="round" stroke-linejoin="round"/>
</svg>
