<svg width="112" height="112" viewBox="0 0 112 112" fill="none" xmlns="http://www.w3.org/2000/svg">
<rect width="112" height="112" rx="56" fill="white"/>
<g clip-path="url(#clip0_2026_121)">
<path d="M56 29.3333C41.272 29.3333 29.3334 41.272 29.3334 56C29.3334 70.728 41.272 82.6666 56 82.6666C70.728 82.6666 82.6667 70.728 82.6667 56C82.6667 41.272 70.728 29.3333 56 29.3333ZM66.6134 53.3333C66.336 46.3666 64.9827 40.2053 62.9787 35.8626C70.5107 38.4813 76.1267 45.1933 77.148 53.3333H66.6134ZM56 77.2C54.3827 75.9266 51.1894 69.552 50.728 58.6666H61.272C60.8107 69.552 57.6174 75.9266 56 77.2ZM50.728 53.3333C51.1894 42.448 54.3827 36.0733 56 34.8C57.6174 36.0733 60.8107 42.448 61.272 53.3333H50.728ZM49.0214 35.8626C47.0187 40.2053 45.664 46.3666 45.3867 53.3333H34.852C35.8734 45.1946 41.4894 38.4813 49.0214 35.8626ZM45.3867 58.6666C45.664 65.6333 47.0174 71.7946 49.0214 76.1373C41.4894 73.5186 35.8734 66.8053 34.852 58.6666H45.3867ZM62.9787 76.1373C64.9814 71.7946 66.336 65.6333 66.6134 58.6666H77.1494C76.1267 66.8053 70.5107 73.5186 62.9787 76.1373Z" fill="#E95B29"/>
</g>
<defs>
<clipPath id="clip0_2026_121">
<rect width="64" height="64" fill="white" transform="translate(24 24)"/>
</clipPath>
</defs>
</svg>
